<?xml version="1.0" encoding="UTF-8" standalone="no"?>
<!-- Created with Inkscape (http://www.inkscape.org/) -->

<svg
   width="158.75mm"
   height="158.75mm"
   viewBox="0 0 158.75 158.75"
   version="1.1"
   id="svg1"
   inkscape:version="1.4.2 (ebf0e94, 2025-05-08)"
   sodipodi:docname="checkmark.svg"
   inkscape:export-filename="checkmark.png"
   inkscape:export-xdpi="96"
   inkscape:export-ydpi="96"
   xmlns:inkscape="http://www.inkscape.org/namespaces/inkscape"
   xmlns:sodipodi="http://sodipodi.sourceforge.net/DTD/sodipodi-0.dtd"
   xmlns="http://www.w3.org/2000/svg"
   xmlns:svg="http://www.w3.org/2000/svg">
  <sodipodi:namedview
     id="namedview1"
     pagecolor="#ffffff"
     bordercolor="#999999"
     borderopacity="1"
     inkscape:showpageshadow="2"
     inkscape:pageopacity="0"
     inkscape:pagecheckerboard="0"
     inkscape:deskcolor="#d1d1d1"
     inkscape:document-units="mm"
     inkscape:zoom="0.71891835"
     inkscape:cx="397.81986"
     inkscape:cy="450.67705"
     inkscape:window-width="1920"
     inkscape:window-height="1014"
     inkscape:window-x="0"
     inkscape:window-y="42"
     inkscape:window-maximized="1"
     inkscape:current-layer="layer1" />
  <defs
     id="defs1" />
  <g
     inkscape:label="Layer 1"
     inkscape:groupmode="layer"
     id="layer1">
    <circle
       style="fill:#7dff00;fill-opacity:1;stroke-width:0.499999"
       id="path1"
       cx="79.375"
       cy="79.375"
       r="79.375" />
    <path
       id="rect1"
       style="fill:#ffffff;fill-opacity:1;stroke-width:0.223322"
       d="m 116.40151,35.64313 c -0.59496,-0.0405 -1.19804,0.2068 -1.59344,0.71481 L 66.815861,98.02141 40.804537,78.5116 c -0.823979,-0.61803 -1.984704,-0.45218 -2.602725,0.37181 l -8.837609,11.78236 c -0.618022,0.82398 -0.452166,1.9847 0.371812,2.60271 l 26.539745,19.90566 c 0.139199,0.1044 0.289689,0.17847 0.443876,0.23875 0.08009,0.0932 0.170545,0.17994 0.271416,0.25845 l 11.622877,9.0461 c 0.812828,0.63262 1.976343,0.4876 2.608969,-0.32522 L 129.36562,47.68778 c 0.63262,-0.81282 0.4876,-1.97683 -0.32522,-2.60944 l -11.62288,-9.0461 c -0.30481,-0.23723 -0.65904,-0.36481 -1.01601,-0.38911 z" />
  </g>
</svg>
